# xmcd CD database file
# Copyright (C) 1993-1998 Ti Kan
# 
# Track frame offsets:
#     150
#     12703
#     25618
#     41038
#     54125
#     66313
#     80333
#     95633
#     106115
#     120345
# 
# Disc length: 1793 seconds
# 
# Revision: 1
# Processed by: cddbd v1.4b41PL1 Copyright (c) Steve Scherf et al.
# Submitted via: DiscPlay 4.0.4
# 
DISCID=7506ff0a
DTITLE=Muddy Waters - I'm Your Hoochie Coochie Man
DYEAR=1900
DGENRE=
TTITLE0=I'm Your Hoochie Coochie Man
TTITLE1=Just Make Love To Me
TTITLE2=They Call Me Muddy Waters
TTITLE3=Forty Days And Forty Nights
TTITLE4=Long Distance Call
TTITLE5=Close To You
TTITLE6=Honey Bee
TTITLE7=Sugar Sweet
TTITLE8=Rollin' Stone
TTITLE9=Rock Me
EXTD=
EXTT0=
EXTT1=
EXTT2=
EXTT3=
EXTT4=
EXTT5=
EXTT6=
EXTT7=
EXTT8=
EXTT9=
PLAYORDER=
